<svg width="64" height="64" viewBox="0 0 64 64" fill="none" xmlns="http://www.w3.org/2000/svg">
<path d="M0 16C0 7.16344 7.16344 0 16 0H48C56.8366 0 64 7.16344 64 16V48C64 56.8366 56.8366 64 48 64H16C7.16344 64 0 56.8366 0 48V16Z" fill="#FF511A"/>
<g clip-path="url(#clip0_350_17799)">
<path d="M32 21C32.8297 21 33.5 21.6703 33.5 22.5V25.5H39.125C40.9906 25.5 42.5 27.0094 42.5 28.875V41.625C42.5 43.4906 40.9906 45 39.125 45H24.875C23.0094 45 21.5 43.4906 21.5 41.625V28.875C21.5 27.0094 23.0094 25.5 24.875 25.5H30.5V22.5C30.5 21.6703 31.1703 21 32 21ZM26.75 39C26.3375 39 26 39.3375 26 39.75C26 40.1625 26.3375 40.5 26.75 40.5H28.25C28.6625 40.5 29 40.1625 29 39.75C29 39.3375 28.6625 39 28.25 39H26.75ZM31.25 39C30.8375 39 30.5 39.3375 30.5 39.75C30.5 40.1625 30.8375 40.5 31.25 40.5H32.75C33.1625 40.5 33.5 40.1625 33.5 39.75C33.5 39.3375 33.1625 39 32.75 39H31.25ZM35.75 39C35.3375 39 35 39.3375 35 39.75C35 40.1625 35.3375 40.5 35.75 40.5H37.25C37.6625 40.5 38 40.1625 38 39.75C38 39.3375 37.6625 39 37.25 39H35.75ZM29.375 33C29.375 32.5027 29.1775 32.0258 28.8258 31.6742C28.4742 31.3225 27.9973 31.125 27.5 31.125C27.0027 31.125 26.5258 31.3225 26.1742 31.6742C25.8225 32.0258 25.625 32.5027 25.625 33C25.625 33.4973 25.8225 33.9742 26.1742 34.3258C26.5258 34.6775 27.0027 34.875 27.5 34.875C27.9973 34.875 28.4742 34.6775 28.8258 34.3258C29.1775 33.9742 29.375 33.4973 29.375 33ZM36.5 34.875C36.9973 34.875 37.4742 34.6775 37.8258 34.3258C38.1775 33.9742 38.375 33.4973 38.375 33C38.375 32.5027 38.1775 32.0258 37.8258 31.6742C37.4742 31.3225 36.9973 31.125 36.5 31.125C36.0027 31.125 35.5258 31.3225 35.1742 31.6742C34.8225 32.0258 34.625 32.5027 34.625 33C34.625 33.4973 34.8225 33.9742 35.1742 34.3258C35.5258 34.6775 36.0027 34.875 36.5 34.875ZM19.25 31.5H20V40.5H19.25C18.0078 40.5 17 39.4922 17 38.25V33.75C17 32.5078 18.0078 31.5 19.25 31.5ZM44.75 31.5C45.9922 31.5 47 32.5078 47 33.75V38.25C47 39.4922 45.9922 40.5 44.75 40.5H44V31.5H44.75Z" fill="white"/>
</g>
<defs>
<clipPath id="clip0_350_17799">
<rect width="30" height="24" fill="white" transform="translate(17 21)"/>
</clipPath>
</defs>
</svg>
