<svg width="64" height="64" viewBox="0 0 64 64" fill="none" xmlns="http://www.w3.org/2000/svg">
<rect width="64" height="64" rx="16" fill="#FF511A" fill-opacity="0.1"/>
<path d="M32 20C32.2156 20 32.4313 20.0469 32.6281 20.1359L41.4547 23.8812C42.486 24.3172 43.2547 25.3344 43.25 26.5625C43.2266 31.2125 41.3141 39.7203 33.2375 43.5875C32.4547 43.9625 31.5453 43.9625 30.7625 43.5875C22.686 39.7203 20.7735 31.2125 20.75 26.5625C20.7453 25.3344 21.5141 24.3172 22.5453 23.8812L31.3766 20.1359C31.5688 20.0469 31.7844 20 32 20ZM32 23.1312V40.85C38.4688 37.7188 40.2078 30.7859 40.25 26.6281L32 23.1312Z" fill="#FF511A"/>
</svg>
