<svg width="40" height="40" viewBox="0 0 40 40" fill="none" xmlns="http://www.w3.org/2000/svg">
<rect width="40" height="40" rx="12" fill="#EFF6FF"/>
<path d="M15.3125 28H24.6875C25.4629 28 26.0938 27.3692 26.0938 26.5938V16.6875H22.8125C22.0371 16.6875 21.4062 16.0567 21.4062 15.2812V12H15.3125C14.5371 12 13.9062 12.6308 13.9062 13.4062V26.5938C13.9062 27.3692 14.5371 28 15.3125 28ZM17.1875 18.5938H22.8125C23.0716 18.5938 23.2812 18.8034 23.2812 19.0625C23.2812 19.3216 23.0716 19.5312 22.8125 19.5312H17.1875C16.9284 19.5312 16.7188 19.3216 16.7188 19.0625C16.7188 18.8034 16.9284 18.5938 17.1875 18.5938ZM17.1875 20.4688H22.8125C23.0716 20.4688 23.2812 20.6784 23.2812 20.9375C23.2812 21.1966 23.0716 21.4062 22.8125 21.4062H17.1875C16.9284 21.4062 16.7188 21.1966 16.7188 20.9375C16.7188 20.6784 16.9284 20.4688 17.1875 20.4688ZM17.1875 22.3438H22.8125C23.0716 22.3438 23.2812 22.5534 23.2812 22.8125C23.2812 23.0716 23.0716 23.2812 22.8125 23.2812H17.1875C16.9284 23.2812 16.7188 23.0716 16.7188 22.8125C16.7188 22.5534 16.9284 22.3438 17.1875 22.3438ZM17.1875 24.2188H20.9375C21.1966 24.2188 21.4062 24.4284 21.4062 24.6875C21.4062 24.9466 21.1966 25.1562 20.9375 25.1562H17.1875C16.9284 25.1562 16.7188 24.9466 16.7188 24.6875C16.7188 24.4284 16.9284 24.2188 17.1875 24.2188Z" fill="#2563EB"/>
<path d="M22.8125 15.7507H25.8191L22.3438 12.2754V15.282C22.3438 15.5406 22.5539 15.7507 22.8125 15.7507Z" fill="#2563EB"/>
</svg>
