<svg width="14" height="13" viewBox="0 0 14 13" fill="none" xmlns="http://www.w3.org/2000/svg">
<path d="M4.07695 0.896875L3.79258 1.75H1.75C0.784766 1.75 0 2.53477 0 3.5V10.5C0 11.4652 0.784766 12.25 1.75 12.25H12.25C13.2152 12.25 14 11.4652 14 10.5V3.5C14 2.53477 13.2152 1.75 12.25 1.75H10.2074L9.92305 0.896875C9.74531 0.360938 9.24492 0 8.67891 0H5.32109C4.75508 0 4.25469 0.360938 4.07695 0.896875ZM7 4.375C8.44878 4.375 9.625 5.55122 9.625 7C9.625 8.44878 8.44878 9.625 7 9.625C5.55122 9.625 4.375 8.44878 4.375 7C4.375 5.55122 5.55122 4.375 7 4.375Z" fill="white"/>
</svg>
