<svg width="68" height="68" viewBox="0 0 68 68" fill="none" xmlns="http://www.w3.org/2000/svg">
<g filter="url(#filter0_d_1039_2389)">
<rect x="2" y="1" width="64" height="64" rx="16" fill="white" shape-rendering="crispEdges"/>
<g clip-path="url(#clip0_1039_2389)">
<path d="M34 23.8467C34.6636 23.8467 35.2001 24.3846 35.2002 25.0469C35.2002 25.7091 34.6636 26.2471 34 26.2471H26C25.5585 26.2471 25.2002 26.6062 25.2002 27.0469V41.0469C25.2002 41.4875 25.5585 41.8467 26 41.8467H40C40.4413 41.8467 40.7998 41.4875 40.7998 41.0469V33.0469C40.7998 32.3847 41.3364 31.8467 42 31.8467C42.6634 31.8467 43.2002 32.3834 43.2002 33.0469V41.0469C43.2002 42.8113 41.7644 44.2471 40 44.2471H26C24.2356 44.2471 22.7998 42.8113 22.7998 41.0469V27.0469C22.7998 25.2824 24.2356 23.8467 26 23.8467H34Z" fill="#2563EB" stroke="#2563EB" stroke-width="0.4"/>
<path d="M31.3759 32.1346C31.3059 32.2046 31.2589 32.2936 31.2389 32.3895L30.5319 35.9257C30.499 36.0895 30.551 36.2585 30.6689 36.3776C30.7639 36.4726 30.8919 36.5235 31.023 36.5235C31.0549 36.5235 31.088 36.5206 31.121 36.5136L34.656 35.8066C34.754 35.7865 34.843 35.7396 34.912 35.6695L42.824 27.7575L39.289 24.2227L31.3759 32.1346Z" fill="#2563EB"/>
<path d="M45.2678 21.7782C44.293 20.8031 42.7069 20.8031 41.7328 21.7782L40.3489 23.1621L43.8839 26.6971L45.2678 25.313C45.7399 24.8421 45.9999 24.214 45.9999 23.546C45.9999 22.8781 45.7399 22.25 45.2678 21.7782Z" fill="#2563EB"/>
</g>
</g>
<defs>
<filter id="filter0_d_1039_2389" x="0" y="0" width="68" height="68" filterUnits="userSpaceOnUse" color-interpolation-filters="sRGB">
<feFlood flood-opacity="0" result="BackgroundImageFix"/>
<feColorMatrix in="SourceAlpha" type="matrix" values="0 0 0 0 0 0 0 0 0 0 0 0 0 0 0 0 0 0 127 0" result="hardAlpha"/>
<feOffset dy="1"/>
<feGaussianBlur stdDeviation="1"/>
<feComposite in2="hardAlpha" operator="out"/>
<feColorMatrix type="matrix" values="0 0 0 0 0 0 0 0 0 0 0 0 0 0 0 0 0 0 0.05 0"/>
<feBlend mode="normal" in2="BackgroundImageFix" result="effect1_dropShadow_1039_2389"/>
<feBlend mode="normal" in="SourceGraphic" in2="effect1_dropShadow_1039_2389" result="shape"/>
</filter>
<clipPath id="clip0_1039_2389">
<rect width="24" height="24" fill="white" transform="translate(22 21)"/>
</clipPath>
</defs>
</svg>
