<svg width="40" height="40" viewBox="0 0 40 40" fill="none" xmlns="http://www.w3.org/2000/svg">
<path d="M0 12C0 5.37258 5.37258 0 12 0H28C34.6274 0 40 5.37258 40 12V28C40 34.6274 34.6274 40 28 40H12C5.37258 40 0 34.6274 0 28V12Z" fill="#F0FDF4"/>
<g clip-path="url(#clip0_345_15548)">
<path d="M17.75 12C18.7156 12 19.5 12.7844 19.5 13.75V26.25C19.5 27.2156 18.7156 28 17.75 28C16.8469 28 16.1031 27.3156 16.0094 26.4344C15.8469 26.4781 15.675 26.5 15.5 26.5C14.3969 26.5 13.5 25.6031 13.5 24.5C13.5 24.2688 13.5406 24.0437 13.6125 23.8375C12.6687 23.4812 12 22.5688 12 21.5C12 20.5031 12.5844 19.6406 13.4312 19.2406C13.1594 18.9 13 18.4688 13 18C13 17.0406 13.675 16.2406 14.575 16.0437C14.525 15.8719 14.5 15.6875 14.5 15.5C14.5 14.5656 15.1438 13.7781 16.0094 13.5594C16.1031 12.6844 16.8469 12 17.75 12ZM22.25 12C23.1531 12 23.8938 12.6844 23.9906 13.5594C24.8594 13.7781 25.5 14.5625 25.5 15.5C25.5 15.6875 25.475 15.8719 25.425 16.0437C26.325 16.2375 27 17.0406 27 18C27 18.4688 26.8406 18.9 26.5688 19.2406C27.4156 19.6406 28 20.5031 28 21.5C28 22.5688 27.3313 23.4812 26.3875 23.8375C26.4594 24.0437 26.5 24.2688 26.5 24.5C26.5 25.6031 25.6031 26.5 24.5 26.5C24.325 26.5 24.1531 26.4781 23.9906 26.4344C23.8969 27.3156 23.1531 28 22.25 28C21.2844 28 20.5 27.2156 20.5 26.25V13.75C20.5 12.7844 21.2844 12 22.25 12Z" fill="#16A34A"/>
</g>
<defs>
<clipPath id="clip0_345_15548">
<rect width="16" height="16" fill="white" transform="translate(12 12)"/>
</clipPath>
</defs>
</svg>
