<svg width="18" height="18" viewBox="0 0 18 18" fill="none" xmlns="http://www.w3.org/2000/svg">
<path d="M12.9094 14.502C11.809 15.2895 10.459 15.75 9 15.75C7.54102 15.75 6.19102 15.2895 5.09063 14.502L7.12969 12.4629C7.68516 12.7652 8.325 12.9375 9.00352 12.9375C9.68203 12.9375 10.3184 12.7652 10.8773 12.4629L12.9164 14.502H12.9094ZM16.098 14.5301C17.2863 13.0043 17.9965 11.0848 17.9965 9C17.9965 6.91523 17.2863 4.9957 16.098 3.46992C16.4145 3.03047 16.3758 2.41172 15.9785 2.01797C15.5813 1.62422 14.9695 1.58203 14.5301 1.89844C13.0043 0.710156 11.0848 0 9 0C6.91523 0 4.9957 0.710156 3.46992 1.89844C3.03047 1.58203 2.41172 1.6207 2.01797 2.01797C1.62422 2.41523 1.58203 3.03047 1.89844 3.46992C0.710156 4.9957 0 6.91523 0 9C0 11.0848 0.710156 13.0043 1.89844 14.5301C1.58203 14.9695 1.6207 15.5883 2.01797 15.982C2.41523 16.3758 3.03047 16.418 3.46992 16.1016C4.9957 17.2898 6.91523 18 9 18C11.0848 18 13.0043 17.2898 14.5301 16.1016C14.9695 16.418 15.5883 16.3793 15.982 15.982C16.3758 15.5848 16.418 14.9695 16.1016 14.5301H16.098ZM14.4984 12.9094L12.4594 10.8703C12.7617 10.3148 12.934 9.675 12.934 8.99648C12.934 8.31797 12.7617 7.68164 12.4594 7.12266L14.4984 5.08359C15.2895 6.19102 15.75 7.54102 15.75 9C15.75 10.459 15.2895 11.809 14.502 12.9094H14.4984ZM12.9094 3.49805L10.8703 5.53711C10.3148 5.23477 9.675 5.0625 8.99648 5.0625C8.31797 5.0625 7.68164 5.23477 7.12266 5.53711L5.08359 3.49805C6.19102 2.71055 7.54102 2.25 9 2.25C10.459 2.25 11.809 2.71055 12.9094 3.49805ZM5.53711 10.8738L3.49805 12.9129C2.71055 11.809 2.25 10.459 2.25 9C2.25 7.54102 2.71055 6.19102 3.49805 5.09063L5.53711 7.12969C5.23477 7.68516 5.0625 8.325 5.0625 9.00352C5.0625 9.68203 5.23477 10.3184 5.53711 10.8773V10.8738ZM7.3125 9C7.3125 8.55245 7.49029 8.12322 7.80676 7.80676C8.12322 7.49029 8.55245 7.3125 9 7.3125C9.44755 7.3125 9.87678 7.49029 10.1932 7.80676C10.5097 8.12322 10.6875 8.55245 10.6875 9C10.6875 9.44755 10.5097 9.87678 10.1932 10.1932C9.87678 10.5097 9.44755 10.6875 9 10.6875C8.55245 10.6875 8.12322 10.5097 7.80676 10.1932C7.49029 9.87678 7.3125 9.44755 7.3125 9Z" fill="#FF511A"/>
</svg>
