<svg width="40" height="40" viewBox="0 0 40 40" fill="none" xmlns="http://www.w3.org/2000/svg">
<rect width="40" height="40" rx="12" fill="#FEF2F2"/>
<path d="M20.4188 12.0906C20.2875 12.0313 20.1469 12 20 12C19.8531 12 19.7125 12.0313 19.5813 12.0906L13.6969 14.5875C13.0094 14.8781 12.4969 15.5563 12.5 16.375C12.5156 19.475 13.7906 25.1469 19.175 27.725C19.6969 27.975 20.3031 27.975 20.825 27.725C26.2094 25.1469 27.4844 19.475 27.5 16.375C27.5031 15.5563 26.9906 14.8781 26.3031 14.5875L20.4188 12.0906ZM16.5 18.9156C16.5 17.8594 17.3563 17 18.4156 17C18.9219 17 19.4094 17.2031 19.7688 17.5594L20 17.7906L20.2313 17.5594C20.5906 17.2 21.0781 17 21.5844 17C22.6406 17 23.5 17.8562 23.5 18.9156C23.5 19.4219 23.2969 19.9094 22.9406 20.2688L20.3563 22.8531C20.1625 23.0469 19.8438 23.0469 19.65 22.8531L17.0656 20.2688C16.7063 19.9094 16.5063 19.4219 16.5063 18.9156H16.5Z" fill="#DC2626"/>
</svg>
