<svg width="48" height="48" viewBox="0 0 48 48" fill="none" xmlns="http://www.w3.org/2000/svg">
<path d="M0 16C0 7.16344 7.16344 0 16 0H32C40.8366 0 48 7.16344 48 16V32C48 40.8366 40.8366 48 32 48H16C7.16344 48 0 40.8366 0 32V16Z" fill="#FEF2F2"/>
<g clip-path="url(#clip0_355_22782)">
<path d="M24 15.75C24.5547 15.75 25.0664 16.043 25.3477 16.5234L33.7852 30.8984C34.0703 31.3828 34.0703 31.9805 33.793 32.4648C33.5156 32.9492 32.9961 33.25 32.4375 33.25H15.5625C15.0039 33.25 14.4844 32.9492 14.2071 32.4648C13.9297 31.9805 13.9336 31.3789 14.2149 30.8984L22.6524 16.5234C22.9336 16.043 23.4453 15.75 24 15.75ZM24 20.75C23.4805 20.75 23.0625 21.168 23.0625 21.6875V26.0625C23.0625 26.582 23.4805 27 24 27C24.5196 27 24.9375 26.582 24.9375 26.0625V21.6875C24.9375 21.168 24.5196 20.75 24 20.75ZM25.25 29.5C25.25 29.1685 25.1183 28.8505 24.8839 28.6161C24.6495 28.3817 24.3315 28.25 24 28.25C23.6685 28.25 23.3506 28.3817 23.1161 28.6161C22.8817 28.8505 22.75 29.1685 22.75 29.5C22.75 29.8315 22.8817 30.1495 23.1161 30.3839C23.3506 30.6183 23.6685 30.75 24 30.75C24.3315 30.75 24.6495 30.6183 24.8839 30.3839C25.1183 30.1495 25.25 29.8315 25.25 29.5Z" fill="#DC2626"/>
</g>
<defs>
<clipPath id="clip0_355_22782">
<rect width="20" height="20" fill="white" transform="translate(14 14.5)"/>
</clipPath>
</defs>
</svg>
