<svg width="48" height="48" viewBox="0 0 48 48" fill="none" xmlns="http://www.w3.org/2000/svg">
<path d="M0 16C0 7.16344 7.16344 0 16 0H31.5313C40.3678 0 47.5312 7.16344 47.5312 16V32C47.5312 40.8366 40.3678 48 31.5313 48H16C7.16344 48 0 40.8366 0 32V16Z" fill="#20253F" fill-opacity="0.1"/>
<g clip-path="url(#clip0_355_22786)">
<path d="M18.0781 15.356C18.2969 16.0122 17.9414 16.7192 17.2891 16.938L16.2656 17.2778V22.0005C16.2656 24.0708 17.9453 25.7505 20.0156 25.7505C22.0859 25.7505 23.7656 24.0708 23.7656 22.0005V17.2778L22.7461 16.938C22.0898 16.7192 21.7383 16.0122 21.957 15.356C22.1758 14.6997 22.8828 14.3481 23.5391 14.5669L24.5586 14.9067C25.5781 15.2466 26.2656 16.1997 26.2656 17.2778V22.0005C26.2656 25.0161 24.1328 27.5317 21.293 28.1216C21.5391 30.3052 23.3906 32.0005 25.6406 32.0005C28.0586 32.0005 30.0156 30.0435 30.0156 27.6255V24.8638C28.9102 24.3833 28.1406 23.2817 28.1406 22.0005C28.1406 20.2739 29.5391 18.8755 31.2656 18.8755C32.9922 18.8755 34.3906 20.2739 34.3906 22.0005C34.3906 23.2817 33.6211 24.3833 32.5156 24.8638V27.6255C32.5156 31.4224 29.4375 34.5005 25.6406 34.5005C22.0117 34.5005 19.043 31.6919 18.7852 28.1294C15.9219 27.5552 13.7656 25.0317 13.7656 22.0005V17.2778C13.7656 16.2036 14.4531 15.2466 15.4766 14.9067L16.4961 14.5669C17.1523 14.3481 17.8594 14.7036 18.0781 15.356ZM31.2656 23.2505C31.5971 23.2505 31.9151 23.1188 32.1495 22.8844C32.3839 22.65 32.5156 22.332 32.5156 22.0005C32.5156 21.669 32.3839 21.351 32.1495 21.1166C31.9151 20.8822 31.5971 20.7505 31.2656 20.7505C30.9341 20.7505 30.6162 20.8822 30.3817 21.1166C30.1473 21.351 30.0156 21.669 30.0156 22.0005C30.0156 22.332 30.1473 22.65 30.3817 22.8844C30.6162 23.1188 30.9341 23.2505 31.2656 23.2505Z" fill="#20253F"/>
</g>
<defs>
<clipPath id="clip0_355_22786">
<rect width="22.5" height="20" fill="white" transform="translate(12.5156 14.5)"/>
</clipPath>
</defs>
</svg>
