<svg width="64" height="64" viewBox="0 0 64 64" fill="none" xmlns="http://www.w3.org/2000/svg">
<path d="M0 16C0 7.16344 7.16344 0 16 0H48C56.8366 0 64 7.16344 64 16V48C64 56.8366 56.8366 64 48 64H16C7.16344 64 0 56.8366 0 48V16Z" fill="url(#paint0_linear_345_17168)"/>
<g clip-path="url(#clip0_345_17168)">
<path d="M27.3359 41.9859L26.7453 43.3688C25.8687 42.9234 25.0625 42.375 24.3313 41.7328L25.3953 40.6688C25.9812 41.1797 26.6328 41.625 27.3359 41.9859ZM21.9031 33.75H20.3984C20.4641 34.7437 20.6516 35.7047 20.9469 36.6141L22.3438 36.0563C22.1141 35.3203 21.9594 34.5469 21.9031 33.75ZM21.9031 32.25C21.9687 31.3687 22.1469 30.5156 22.4234 29.7141L21.0406 29.1234C20.6891 30.1078 20.4688 31.1578 20.3984 32.25H21.9031ZM23.0141 28.3359C23.3797 27.6375 23.8203 26.9859 24.3313 26.3906L23.2672 25.3266C22.625 26.0578 22.0719 26.8641 21.6312 27.7406L23.0141 28.3359ZM38.6094 40.6688C37.9578 41.2313 37.2312 41.7141 36.4484 42.0938L37.0062 43.4906C37.9766 43.0266 38.8719 42.4313 39.6734 41.7281L38.6094 40.6688ZM25.3906 25.3313C26.0422 24.7688 26.7688 24.2859 27.5516 23.9062L26.9937 22.5094C26.0234 22.9734 25.1281 23.5688 24.3313 24.2719L25.3906 25.3313ZM40.9859 37.6641C40.6203 38.3625 40.1797 39.0141 39.6688 39.6094L40.7328 40.6734C41.375 39.9422 41.9281 39.1313 42.3688 38.2594L40.9859 37.6641ZM42.0969 33.75C42.0312 34.6313 41.8531 35.4844 41.5766 36.2859L42.9594 36.8766C43.3109 35.8875 43.5312 34.8375 43.5969 33.7453H42.0969V33.75ZM35.0563 42.6562C34.3203 42.8906 33.5469 43.0406 32.75 43.0969V44.6016C33.7437 44.5359 34.7047 44.3484 35.6141 44.0531L35.0563 42.6562ZM31.25 43.0969C30.3687 43.0312 29.5156 42.8531 28.7141 42.5766L28.1234 43.9594C29.1125 44.3109 30.1625 44.5312 31.2547 44.5969V43.0969H31.25ZM41.6562 29.9438C41.8906 30.6797 42.0406 31.4531 42.0969 32.25H43.6016C43.5359 31.2563 43.3484 30.2953 43.0531 29.3859L41.6562 29.9438ZM24.3313 39.6094C23.7688 38.9578 23.2859 38.2312 22.9062 37.4484L21.5094 38.0062C21.9734 38.9766 22.5688 39.8719 23.2719 40.6734L24.3313 39.6094ZM32.75 22.9031C33.6313 22.9687 34.4797 23.1469 35.2859 23.4234L35.8766 22.0406C34.8922 21.6891 33.8422 21.4688 32.75 21.3984V22.9031ZM28.9438 23.3438C29.6797 23.1094 30.4531 22.9594 31.25 22.9031V21.3984C30.2563 21.4641 29.2953 21.6516 28.3859 21.9469L28.9438 23.3438ZM40.7328 25.3266L39.6688 26.3906C40.2313 27.0422 40.7141 27.7688 41.0984 28.5516L42.4953 27.9937C42.0312 27.0234 41.4359 26.1281 40.7328 25.3266ZM38.6094 25.3313L39.6734 24.2672C38.9422 23.625 38.1359 23.0719 37.2594 22.6312L36.6688 24.0141C37.3625 24.3797 38.0187 24.8203 38.6094 25.3313Z" fill="white"/>
<path d="M32 39.375C32.7249 39.375 33.3125 38.7874 33.3125 38.0625C33.3125 37.3376 32.7249 36.75 32 36.75C31.2751 36.75 30.6875 37.3376 30.6875 38.0625C30.6875 38.7874 31.2751 39.375 32 39.375Z" fill="white"/>
<path d="M32.361 35.625H31.611C31.3017 35.625 31.0485 35.3719 31.0485 35.0625C31.0485 31.7344 34.6767 32.0672 34.6767 30.0094C34.6767 29.0719 33.8423 28.125 31.986 28.125C30.622 28.125 29.9095 28.575 29.211 29.4703C29.0282 29.7047 28.6907 29.7516 28.4517 29.5828L27.8376 29.1516C27.5751 28.9687 27.5142 28.5984 27.7157 28.3453C28.7095 27.0703 29.8907 26.25 31.9907 26.25C34.4423 26.25 36.5564 27.6469 36.5564 30.0094C36.5564 33.1781 32.9282 32.9859 32.9282 35.0625C32.9235 35.3719 32.6704 35.625 32.361 35.625Z" fill="white"/>
</g>
<defs>
<linearGradient id="paint0_linear_345_17168" x1="-22.6274" y1="22.6274" x2="22.6274" y2="67.8823" gradientUnits="userSpaceOnUse">
<stop stop-color="#60A5FA"/>
<stop offset="1" stop-color="#A855F7"/>
</linearGradient>
<clipPath id="clip0_345_17168">
<rect width="24" height="24" fill="white" transform="translate(20 21)"/>
</clipPath>
</defs>
</svg>
