<svg width="40" height="40" viewBox="0 0 40 40" fill="none" xmlns="http://www.w3.org/2000/svg">
<rect width="40" height="40" rx="12" fill="#FDF2F8"/>
<path d="M27.2 14H16C15.7878 14 15.5843 14.0834 15.4343 14.2319C15.2843 14.3803 15.2 14.5817 15.2 14.7917V17.1667H19.2V15.5833H24V23.5H27.2C27.4122 23.5 27.6157 23.4166 27.7657 23.2681C27.9157 23.1197 28 22.9183 28 22.7083V14.7917C28 14.5817 27.9157 14.3803 27.7657 14.2319C27.6157 14.0834 27.4122 14 27.2 14ZM17.8 16.5482C17.8 16.6072 17.7763 16.6639 17.7341 16.7056C17.6919 16.7474 17.6347 16.7708 17.575 16.7708H16.825C16.7653 16.7708 16.7081 16.7474 16.6659 16.7056C16.6237 16.6639 16.6 16.6072 16.6 16.5482V15.806C16.6 15.7469 16.6237 15.6903 16.6659 15.6485C16.7081 15.6068 16.7653 15.5833 16.825 15.5833H17.575C17.6347 15.5833 17.6919 15.6068 17.7341 15.6485C17.7763 15.6903 17.8 15.7469 17.8 15.806V16.5482ZM26.6 21.694C26.6 21.7531 26.5763 21.8097 26.5341 21.8515C26.4919 21.8932 26.4347 21.9167 26.375 21.9167H25.625C25.5653 21.9167 25.5081 21.8932 25.4659 21.8515C25.4237 21.8097 25.4 21.7531 25.4 21.694V20.9518C25.4 20.8928 25.4237 20.8361 25.4659 20.7944C25.5081 20.7526 25.5653 20.7292 25.625 20.7292H26.375C26.4347 20.7292 26.4919 20.7526 26.5341 20.7944C26.5763 20.8361 26.6 20.8928 26.6 20.9518V21.694ZM26.6 19.1211C26.6 19.1801 26.5763 19.2368 26.5341 19.2785C26.4919 19.3203 26.4347 19.3438 26.375 19.3438H25.625C25.5653 19.3438 25.5081 19.3203 25.4659 19.2785C25.4237 19.2368 25.4 19.1801 25.4 19.1211V18.3789C25.4 18.3199 25.4237 18.2632 25.4659 18.2215C25.5081 18.1797 25.5653 18.1562 25.625 18.1562H26.375C26.4347 18.1562 26.4919 18.1797 26.5341 18.2215C26.5763 18.2632 26.6 18.3199 26.6 18.3789V19.1211ZM26.6 16.5482C26.6 16.6072 26.5763 16.6639 26.5341 16.7056C26.4919 16.7474 26.4347 16.7708 26.375 16.7708H25.625C25.5653 16.7708 25.5081 16.7474 25.4659 16.7056C25.4237 16.6639 25.4 16.6072 25.4 16.5482V15.806C25.4 15.7469 25.4237 15.6903 25.4659 15.6485C25.5081 15.6068 25.5653 15.5833 25.625 15.5833H26.375C26.4347 15.5833 26.4919 15.6068 26.5341 15.6485C26.5763 15.6903 26.6 15.7469 26.6 15.806V16.5482ZM22.4 17.9583H12.8C12.5878 17.9583 12.3843 18.0417 12.2343 18.1902C12.0843 18.3387 12 18.54 12 18.75V25.875C12 26.085 12.0843 26.2863 12.2343 26.4348C12.3843 26.5833 12.5878 26.6667 12.8 26.6667H22.4C22.6122 26.6667 22.8157 26.5833 22.9657 26.4348C23.1157 26.2863 23.2 26.085 23.2 25.875V18.75C23.2 18.54 23.1157 18.3387 22.9657 18.1902C22.8157 18.0417 22.6122 17.9583 22.4 17.9583ZM14.4 19.5417C14.5582 19.5417 14.7129 19.5881 14.8445 19.6751C14.976 19.7621 15.0786 19.8857 15.1391 20.0304C15.1997 20.175 15.2155 20.3342 15.1846 20.4878C15.1538 20.6413 15.0776 20.7824 14.9657 20.8931C14.8538 21.0038 14.7113 21.0792 14.5561 21.1098C14.4009 21.1403 14.24 21.1247 14.0939 21.0647C13.9477 21.0048 13.8227 20.9033 13.7348 20.7732C13.6469 20.643 13.6 20.4899 13.6 20.3333C13.6 20.1234 13.6843 19.922 13.8343 19.7735C13.9843 19.6251 14.1878 19.5417 14.4 19.5417ZM21.6 25.0833H13.6V24.2917L15.2 22.7083L16 23.5L19.2 20.3333L21.6 22.7083V25.0833Z" fill="#DB2777"/>
</svg>
