<svg width="40" height="40" viewBox="0 0 40 40" fill="none" xmlns="http://www.w3.org/2000/svg">
<path d="M0 12C0 5.37258 5.37258 0 12 0H28C34.6274 0 40 5.37258 40 12V28C40 34.6274 34.6274 40 28 40H12C5.37258 40 0 34.6274 0 28V12Z" fill="#FF511A" fill-opacity="0.1"/>
<path d="M21 14.5C21 13.9469 20.5531 13.5 20 13.5C19.4469 13.5 19 13.9469 19 14.5V19H14.5C13.9469 19 13.5 19.4469 13.5 20C13.5 20.5531 13.9469 21 14.5 21H19V25.5C19 26.0531 19.4469 26.5 20 26.5C20.5531 26.5 21 26.0531 21 25.5V21H25.5C26.0531 21 26.5 20.5531 26.5 20C26.5 19.4469 26.0531 19 25.5 19H21V14.5Z" fill="#FF511A"/>
</svg>
