<svg width="40" height="40" viewBox="0 0 40 40" fill="none" xmlns="http://www.w3.org/2000/svg">
<rect width="40" height="40" rx="12" fill="#FAF5FF"/>
<path d="M14.5 12C15.8798 12 17 13.1202 17 14.5C17 15.8798 15.8798 17 14.5 17C13.1202 17 12 15.8798 12 14.5C12 13.1202 13.1202 12 14.5 12ZM26 12C27.3798 12 28.5 13.1202 28.5 14.5C28.5 15.8798 27.3798 17 26 17C24.6202 17 23.5 15.8798 23.5 14.5C23.5 13.1202 24.6202 12 26 12ZM10 21.3344C10 19.4938 11.4937 18 13.3344 18H14.6687C15.1656 18 15.6375 18.1094 16.0625 18.3031C16.0219 18.5281 16.0031 18.7625 16.0031 19C16.0031 20.1938 16.5281 21.2656 17.3562 22C17.35 22 17.3438 22 17.3344 22H10.6656C10.3 22 10 21.7 10 21.3344ZM22.6656 22C22.6594 22 22.6531 22 22.6438 22C23.475 21.2656 23.9969 20.1938 23.9969 19C23.9969 18.7625 23.975 18.5312 23.9375 18.3031C24.3625 18.1062 24.8344 18 25.3313 18H26.6656C28.5063 18 30 19.4938 30 21.3344C30 21.7031 29.7 22 29.3344 22H22.6656ZM17 19C17 17.3443 18.3443 16 20 16C21.6557 16 23 17.3443 23 19C23 20.6557 21.6557 22 20 22C18.3443 22 17 20.6557 17 19ZM14 27.1656C14 24.8656 15.8656 23 18.1656 23H21.8344C24.1344 23 26 24.8656 26 27.1656C26 27.625 25.6281 28 25.1656 28H14.8344C14.375 28 14 27.6281 14 27.1656Z" fill="#9333EA"/>
</svg>
