<svg width="40" height="40" viewBox="0 0 40 40" fill="none" xmlns="http://www.w3.org/2000/svg">
<path d="M0 12C0 5.37258 5.37258 0 12 0H28C34.6274 0 40 5.37258 40 12V28C40 34.6274 34.6274 40 28 40H12C5.37258 40 0 34.6274 0 28V12Z" fill="#FAF5FF"/>
<g clip-path="url(#clip0_345_15536)">
<path d="M20 12C18.3438 12 17 13.3438 17 15V20C17 21.6562 18.3438 23 20 23C21.6562 23 23 21.6562 23 20V15C23 13.3438 21.6562 12 20 12ZM16 18.75C16 18.3344 15.6656 18 15.25 18C14.8344 18 14.5 18.3344 14.5 18.75V20C14.5 22.7844 16.5687 25.0844 19.25 25.45V26.5H17.75C17.3344 26.5 17 26.8344 17 27.25C17 27.6656 17.3344 28 17.75 28H20H22.25C22.6656 28 23 27.6656 23 27.25C23 26.8344 22.6656 26.5 22.25 26.5H20.75V25.45C23.4312 25.0844 25.5 22.7844 25.5 20V18.75C25.5 18.3344 25.1656 18 24.75 18C24.3344 18 24 18.3344 24 18.75V20C24 22.2094 22.2094 24 20 24C17.7906 24 16 22.2094 16 20V18.75Z" fill="#9333EA"/>
</g>
<defs>
<clipPath id="clip0_345_15536">
<rect width="12" height="16" fill="white" transform="translate(14 12)"/>
</clipPath>
</defs>
</svg>
