<svg width="34" height="36" viewBox="0 0 34 36" fill="none" xmlns="http://www.w3.org/2000/svg">
<path d="M16.875 0C17.1985 0 17.5219 0.0703125 17.8172 0.203906L31.0571 5.82188C32.6039 6.47578 33.7571 8.00156 33.75 9.84375C33.7149 16.8188 30.8461 29.5805 18.7313 35.3812C17.5571 35.9437 16.193 35.9437 15.0188 35.3812C2.90394 29.5805 0.0351882 16.8188 3.19816e-05 9.84375C-0.00699927 8.00156 1.14613 6.47578 2.693 5.82188L15.9399 0.203906C16.2282 0.0703125 16.5516 0 16.875 0ZM16.875 4.69688V31.275C26.5782 26.5781 29.1868 16.1789 29.25 9.94219L16.875 4.69688Z" fill="#FF511A" fill-opacity="0.2"/>
</svg>
