<svg width="48" height="48" viewBox="0 0 48 48" fill="none" xmlns="http://www.w3.org/2000/svg">
<rect width="48" height="48" rx="12" fill="#FAF5FF"/>
<path d="M24 14C24.1797 14 24.3594 14.0391 24.5235 14.1133L31.8789 17.2344C32.7383 17.5977 33.3789 18.4453 33.375 19.4688C33.3555 23.3438 31.7617 30.4336 25.0313 33.6562C24.3789 33.9688 23.6211 33.9688 22.9688 33.6562C16.2383 30.4336 14.6445 23.3438 14.625 19.4688C14.6211 18.4453 15.2617 17.5977 16.1211 17.2344L23.4805 14.1133C23.6406 14.0391 23.8203 14 24 14ZM24 16.6094V31.375C29.3906 28.7656 30.8399 22.9883 30.875 19.5234L24 16.6094Z" fill="#A855F7"/>
</svg>
