<svg width="48" height="48" viewBox="0 0 48 48" fill="none" xmlns="http://www.w3.org/2000/svg">
<path d="M32 0C40.8366 0 48 7.16344 48 16V32C48 40.8366 40.8366 48 32 48H16C7.16344 48 0 40.8366 0 32V16C0 7.16344 7.16344 0 16 0H32Z" fill="#FF511A" fill-opacity="0.1"/>
<path d="M32 0C40.8366 0 48 7.16344 48 16V32C48 40.8366 40.8366 48 32 48H16C7.16344 48 0 40.8366 0 32V16C0 7.16344 7.16344 0 16 0H32Z" stroke="#E5E7EB"/>
<g clip-path="url(#clip0_355_22784)">
<path d="M28.8985 16.2425C29.1289 15.7074 28.9571 15.0824 28.4844 14.7386C28.0118 14.3949 27.3672 14.4261 26.9258 14.8089L16.9258 23.5589C16.5352 23.9027 16.3946 24.4535 16.5782 24.9379C16.7618 25.4222 17.2305 25.7504 17.75 25.7504H22.1055L19.1016 32.7582C18.8711 33.2933 19.043 33.9183 19.5157 34.2621C19.9883 34.6058 20.6328 34.5746 21.0743 34.1918L31.0743 25.4418C31.4649 25.098 31.6055 24.5472 31.4219 24.0629C31.2383 23.5785 30.7735 23.2543 30.25 23.2543H25.8946L28.8985 16.2425Z" fill="#FF511A"/>
</g>
<defs>
<clipPath id="clip0_355_22784">
<rect width="17.5" height="20" fill="white" transform="translate(15.25 14.5)"/>
</clipPath>
</defs>
</svg>
