<svg width="48" height="48" viewBox="0 0 48 48" fill="none" xmlns="http://www.w3.org/2000/svg">
<path d="M0 16C0 7.16344 7.16344 0 16 0H32C40.8366 0 48 7.16344 48 16V32C48 40.8366 40.8366 48 32 48H16C7.16344 48 0 40.8366 0 32V16Z" fill="#F9FAFB"/>
<path d="M16.5 17C16.5 16.3086 15.9414 15.75 15.25 15.75C14.5586 15.75 14 16.3086 14 17V30.125C14 31.8516 15.3984 33.25 17.125 33.25H32.75C33.4414 33.25 34 32.6914 34 32C34 31.3086 33.4414 30.75 32.75 30.75H17.125C16.7812 30.75 16.5 30.4688 16.5 30.125V17ZM32.3828 20.3828C32.8711 19.8945 32.8711 19.1016 32.3828 18.6133C31.8945 18.125 31.1016 18.125 30.6133 18.6133L26.5 22.7305L24.2578 20.4883C23.7695 20 22.9766 20 22.4883 20.4883L18.1133 24.8633C17.625 25.3516 17.625 26.1445 18.1133 26.6328C18.6016 27.1211 19.3945 27.1211 19.8828 26.6328L23.375 23.1445L25.6172 25.3867C26.1055 25.875 26.8984 25.875 27.3867 25.3867L32.3867 20.3867L32.3828 20.3828Z" fill="#4A4D53"/>
</svg>
