<svg width="40" height="40" viewBox="0 0 40 40" fill="none" xmlns="http://www.w3.org/2000/svg">
<path d="M0 12C0 5.37258 5.37258 0 12 0H28C34.6274 0 40 5.37258 40 12V28C40 34.6274 34.6274 40 28 40H12C5.37258 40 0 34.6274 0 28V12Z" fill="#FEFCE8"/>
<g clip-path="url(#clip0_345_15929)">
<path d="M20 12C20.1438 12 20.2875 12.0313 20.4188 12.0906L26.3031 14.5875C26.9906 14.8781 27.5031 15.5563 27.5 16.375C27.4844 19.475 26.2094 25.1469 20.825 27.725C20.3031 27.975 19.6969 27.975 19.175 27.725C13.7906 25.1469 12.5156 19.475 12.5 16.375C12.4969 15.5563 13.0094 14.8781 13.6969 14.5875L19.5844 12.0906C19.7125 12.0313 19.8563 12 20 12ZM20 14.0875V25.9C24.3125 23.8125 25.4719 19.1906 25.5 16.4187L20 14.0875Z" fill="#CA8A04"/>
</g>
<defs>
<clipPath id="clip0_345_15929">
<rect width="16" height="16" fill="white" transform="translate(12 12)"/>
</clipPath>
</defs>
</svg>
