<svg width="40" height="40" viewBox="0 0 40 40" fill="none" xmlns="http://www.w3.org/2000/svg">
<rect width="40" height="40" rx="12" fill="#FEFCE8"/>
<g clip-path="url(#clip0_1027_2337)">
<path d="M13.4817 12.8467C13.5687 12.845 13.6557 12.8602 13.7366 12.8926C13.8173 12.925 13.8907 12.9739 13.9524 13.0352C14.0141 13.0965 14.063 13.1696 14.0959 13.25C14.1287 13.33 14.1455 13.4156 14.1448 13.502V25.8525H26.4954V25.8535C26.5808 25.8521 26.6658 25.867 26.7454 25.8984C26.8258 25.9302 26.8993 25.9776 26.9612 26.0381C27.0231 26.0986 27.0721 26.1712 27.1057 26.251C27.1393 26.3307 27.1565 26.4164 27.1565 26.5029C27.1565 26.5894 27.1392 26.6751 27.1057 26.7549C27.0722 26.8346 27.0231 26.9072 26.9612 26.9678C26.8993 27.0283 26.8258 27.0756 26.7454 27.1074C26.6658 27.1388 26.5808 27.1538 26.4954 27.1523V27.1533H13.4905C13.3184 27.1525 13.1538 27.083 13.0325 26.9609C12.9112 26.8387 12.8425 26.6732 12.843 26.501V13.502C12.8415 13.3309 12.9084 13.1657 13.0276 13.043C13.1471 12.9201 13.3103 12.8498 13.4817 12.8467ZM26.4797 16.0977C26.6112 16.0946 26.7396 16.1323 26.8479 16.2021C26.9574 16.2729 27.0432 16.3751 27.094 16.4951C27.1447 16.615 27.1584 16.7473 27.1331 16.875C27.1077 17.0023 27.0437 17.1187 26.9514 17.21L26.9524 17.2109L21.4524 22.7139H21.4514C21.3891 22.7757 21.3153 22.825 21.2336 22.8574C21.152 22.8898 21.0645 22.9046 20.9768 22.9023C20.8891 22.9001 20.8027 22.8803 20.7229 22.8438C20.643 22.8071 20.5709 22.7545 20.512 22.6895L18.4534 20.4238L15.9338 22.7324C15.8709 22.79 15.7971 22.8351 15.717 22.8643C15.6369 22.8934 15.5513 22.9061 15.4661 22.9023C15.3808 22.8986 15.2964 22.8789 15.219 22.8428C15.1417 22.8067 15.0725 22.7553 15.0149 22.6924C14.9573 22.6295 14.9122 22.5557 14.8831 22.4756C14.8539 22.3954 14.8412 22.3098 14.845 22.2246C14.8487 22.1393 14.8694 22.0549 14.9055 21.9775C14.9416 21.9005 14.9921 21.831 15.0549 21.7734L18.0559 19.0234L18.0569 19.0225C18.1842 18.9071 18.3521 18.8474 18.5237 18.8555C18.6955 18.8636 18.8569 18.9394 18.9729 19.0664H18.9739L21.0149 21.3115L26.0344 16.293C26.1517 16.1728 26.3109 16.103 26.4788 16.0977H26.4797Z" fill="#CA8A04" stroke="#CA8A04" stroke-width="0.3"/>
</g>
<defs>
<clipPath id="clip0_1027_2337">
<rect width="16" height="16" fill="white" transform="translate(12 12)"/>
</clipPath>
</defs>
</svg>
